<?xml version="1.0" encoding="UTF-8"?>
<svg version="1.1" viewBox="0 0 1024 1024" width="1024" height="1024" xmlns="http://www.w3.org/2000/svg">
<path transform="translate(410,196)" d="m0 0h11l10 4 8 8 3 6 1 5v32h138v-35l5-10 8-7 9-3h11l10 4 8 7 4 9v35h23l7 3 5 5 2 4v39l-4 6-5 4-3 1h-25v80h24l8 4 5 8v37l-3 6-5 4-5 2h-24v81h26l6 4 4 5 1 2v38l-4 6-6 5-5 1h-22v79h24l8 4 4 5 1 2v38l-4 7-6 4-3 1h-24v34l-4 10-9 8-9 3h-11l-10-4-7-6-5-10-1-35h-136l-1 33-4 10-4 5-10 6-4 1h-12l-10-4-8-8-3-7v-36h-24l-8-4-4-6-1-3v-36l4-7 6-4 4-1h23v-79h-23l-8-4-4-5-2-5v-35l3-6 8-6h26v-81h-25l-8-5-4-8v-35l4-8 8-5h25v-80h-25l-8-5-4-8v-36l3-6 6-5 7-2h21v-36l4-8 5-5 8-5zm1 17-5 4-1 3v547l3 5 4 2h7l5-4 1-2v-549l-4-5-2-1zm193 0-5 4-1 2v549l5 5 2 1h7l5-3 2-4v-547l-4-6-2-1zm-231 55-4 2-1 20 2 6 1 1h17v-28l-1-1zm70 0-1 3 1 26h137l1-1v-27l-2-1zm193 0v29h18l2-3v-23l-3-3zm-193 45v80h138v-79l-1-1zm-72 97-2 2v24l3 2h15l1-1v-27zm72 0v27h138v-27zm193 0v28h17l3-2v-24l-2-2zm-193 44v81h138v-81zm-72 97-2 2v25l2 1h17v-28zm72 0v27h138v-26l-1-1zm193 0v28h18l2-2v-24l-3-2zm-193 44v80h138v-79l-1-1zm-72 97-2 2v24l2 1h17v-27zm72 0v27h138v-27zm193 0v27h18l2-2v-23l-2-2z" fill="#FFFFFF"/>
<path transform="translate(410,196)" d="m0 0h11l10 4 8 8 3 6 1 5v32h138v-35l5-10 8-7 9-3h11l10 4 8 7 4 9v33l-2 1v-29l-2-9-6-8-10-5h-15l-10 5-6 8-2 7-1 33-1 1h-139l-1-1-1-36-4-8-7-6-7-3h-15l-8 4-6 7-3 8-1 34-1 1-24 1-7 4-3 4-1 10v23l2 9 5 5 6 2 23 1v80h-1v-79h-25l-8-5-4-8v-36l3-6 6-5 7-2h21v-36l4-8 5-5 8-5z" fill="#FFFFFF"/>
<path transform="translate(442,594)" d="m0 0h140v82l-1 1h-139l-1-1v-81zm1 1v80h138v-79l-1-1z" fill="#FFFFFF"/>
<path transform="translate(635,251)" d="m0 0h24l7 3 5 5 2 4v39l-4 6-5 4-3 1h-26v-1l24-1 8-4 3-4 1-4v-31l-2-8-5-5-3-1-26-1z" fill="#FFFFFF"/>
<path transform="translate(661,252)" d="m0 0 5 2 5 5 2 5h-2l-4-6-3-3-3-1z" fill="#FFFFFF"/>
<path transform="translate(397,202)" d="m0 0 2 1-6 7-2 4h-2l2-6 4-5z" fill="#FFFFFF"/>
</svg>
